<?xml version="1.0" encoding="utf-8"?>
<!-- Generator: Adobe Illustrator 19.0.0, SVG Export Plug-In . SVG Version: 6.00 Build 0)  -->
<svg version="1.1" xmlns="http://www.w3.org/2000/svg" xmlns:xlink="http://www.w3.org/1999/xlink" x="0px" y="0px"
	 viewBox="-483 485.1 31.9 31.9" style="enable-background:new -483 485.1 31.9 31.9;" xml:space="preserve">
<style type="text/css">
	.st0{fill:#FFFFFF;}
</style>
<g id="Layer_2">
	<rect x="-483" y="485.1" width="31.9" height="31.9"/>
</g>
<g id="Capa_1">
	<g>
		<g>
			<path class="st0" d="M-462.4,513.1h-18.1v-24.2h18.1v4.1l2.4-2.7V489c0-1.4-1.1-2.5-2.5-2.5h-18.1c-1.4,0-2.5,1.1-2.5,2.5v24.1
				c0,1.4,1.1,2.5,2.5,2.5h18.1c1.4,0,2.5-1.1,2.5-2.5v-7.9l-2.4,2.7L-462.4,513.1L-462.4,513.1z"/>
			<path class="st0" d="M-464.5,493.4c0-0.7-0.5-1.2-1.2-1.2h-11.6c-0.7,0-1.2,0.5-1.2,1.2c0,0.7,0.5,1.2,1.2,1.2h11.6
				C-465,494.6-464.5,494-464.5,493.4z"/>
			<path class="st0" d="M-466.2,497.2h-11.2c-0.7,0-1.2,0.5-1.2,1.2c0,0.7,0.5,1.2,1.2,1.2h9L-466.2,497.2z"/>
			<path class="st0" d="M-470.7,502.2h-6.7c-0.7,0-1.2,0.5-1.2,1.2c0,0.7,0.5,1.2,1.2,1.2h5.3L-470.7,502.2z"/>
			<path class="st0" d="M-478.5,508.5c0,0.7,0.5,1.2,1.2,1.2h3.9c0-0.2,0-0.3,0.1-0.4l0.6-2h-4.5
				C-478,507.3-478.5,507.9-478.5,508.5z"/>
			<path class="st0" d="M-460.4,493.5l-8.4,9.4l-0.7,0.7l4.7,4.2l0.7-0.7l8.4-9.4l0.8-0.9l-4.6-4.2L-460.4,493.5z M-460.8,497.7
				l-5.5,6.2c-0.1,0.1-0.2,0.1-0.3,0.1c-0.1,0-0.2,0-0.3-0.1l-0.3-0.2c-0.2-0.1-0.2-0.4,0-0.6l5.5-6.2c0.1-0.1,0.2-0.1,0.3-0.1
				c0.1,0,0.2,0,0.3,0.1l0.3,0.2C-460.7,497.3-460.6,497.6-460.8,497.7z M-459.2,494.8l0.3,0.2c0.2,0.1,0.2,0.4,0,0.6l-0.1,0.1
				l-0.4,0.4l0,0c-0.1,0.1-0.2,0.1-0.3,0.1c-0.1,0-0.2,0-0.3-0.1l-0.3-0.2c-0.1-0.1-0.1-0.2-0.1-0.3c0-0.1,0-0.2,0.1-0.3l0.5-0.5
				C-459.6,494.7-459.3,494.7-459.2,494.8z"/>
			<polygon class="st0" points="-458.8,491.7 -459.2,492.1 -454.5,496.3 -454.2,495.9 -453.4,495 -458,490.9 			"/>
			<path class="st0" d="M-451.1,491.9c0-0.4-0.2-0.7-0.4-0.9l-2.6-2.4c-0.3-0.2-0.6-0.4-1-0.3c-0.4,0-0.7,0.2-0.9,0.4l-1.6,1.7
				l4.6,4.2l1.6-1.7C-451.2,492.6-451,492.2-451.1,491.9z M-453.1,492.8l-2.8-2.5l0.8-0.9l2.8,2.5L-453.1,492.8z"/>
			<path class="st0" d="M-471.4,510.5c0.2,0.2,0.5,0.2,0.7,0.1l5.3-2.2l-4.6-4.2l-1.6,5.6C-471.7,510.1-471.6,510.3-471.4,510.5z
				 M-469.6,505.7l2.7,2.4l-2.1,0.9l-1.2-1.1L-469.6,505.7z"/>
		</g>
	</g>
</g>
</svg>
